<?xml version="1.0" encoding="utf-8"?>
<svg width="800px" height="800px" viewBox="0 0 24 24" fill="none" xmlns="http://www.w3.org/2000/svg">
<path d="M19.8007 3.33301V8.53308H14.6006" stroke="#FF69B4" stroke-width="2" stroke-linecap="round" stroke-linejoin="round"/>
<path d="M4.2002 20.667V15.4669H9.40027" stroke="#FF69B4" stroke-width="2" stroke-linecap="round" stroke-linejoin="round"/>
<path d="M5.46022 9.2002C5.81177 7.90956 6.47353 6.73037 7.38022 5.77376C8.28691 4.81715 9.41137 4.11054 10.6558 3.71675C11.9003 3.32296 13.2274 3.25532 14.5051 3.52031C15.7828 3.7853 16.9648 4.37368 17.9402 5.2202L19.8002 7.0002M4.2002 17.0002L6.06022 18.7802C7.03566 19.6267 8.21765 20.2151 9.49532 20.4801C10.773 20.7451 12.1001 20.6774 13.3446 20.2836C14.589 19.8898 15.7135 19.1832 16.6202 18.2266C17.5269 17.27 18.1886 16.0908 18.5402 14.8002" stroke="#FF69B4" stroke-width="2" stroke-linecap="round" stroke-linejoin="round"/>
</svg>
